<?xml version="1.0" encoding="utf-8"?>
<!-- Generator: Adobe Illustrator 23.0.1, SVG Export Plug-In . SVG Version: 6.00 Build 0)  -->
<svg version="1.1" id="Layer_1" xmlns="http://www.w3.org/2000/svg" xmlns:xlink="http://www.w3.org/1999/xlink" x="0px" y="0px"
	 viewBox="0 0 20 20" style="enable-background:new 0 0 20 20;" xml:space="preserve">
<path d="M7.1,5.8c0,0.4,0.3,0.8,0.6,0.8h9.6c0.4,0,0.6-0.3,0.6-0.8S17.7,5,17.4,5H7.8C7.4,5,7.1,5.3,7.1,5.8z M7.1,14.8
	c0-0.4,0.3-0.8,0.6-0.8h9.6c0.4,0,0.6,0.3,0.6,0.8s-0.3,0.8-0.6,0.8H7.8C7.4,15.5,7.1,15.2,7.1,14.8z M1.8,12H0.4v1.7h1.5V12z
	 M1.8,14.6H0.4v3.1h1.5V14.6z M4.6,12H3.1v1.7h1.5V12z M4.6,14.6H3.1v3.1h1.5V14.6z M1.8,2.9H0.4v1.7h1.5V2.9z M1.8,5.4H0.4v3.1h1.5
	V5.4z"/>
</svg>
